<?xml version="1.0" encoding="iso-8859-1"?>
<!-- Generator: Adobe Illustrator 19.0.0, SVG Export Plug-In . SVG Version: 6.00 Build 0)  -->
<svg version="1.1" id="Capa_1" xmlns="http://www.w3.org/2000/svg" xmlns:xlink="http://www.w3.org/1999/xlink" x="0px" y="0px"
	 viewBox="0 0 512 512" style="enable-background:new 0 0 512 512;" xml:space="preserve">
<g>
	<g>
		<g>
			<path d="M220,80c-4.8,0-8,3.2-8,8s3.2,8,8,8h8c4.8,0,8-3.2,8-8s-3.2-8-8-8H220z"/>
			<path d="M252,80c-4.8,0-8,3.2-8,8s3.2,8,8,8h8c4.8,0,8-3.2,8-8s-3.2-8-8-8H252z"/>
			<path d="M188,96h8c4.8,0,8-3.2,8-8s-3.2-8-8-8h-8c-4.8,0-8,3.2-8,8S183.2,96,188,96z"/>
			<path d="M380,344c4.8,0,8-3.2,8-8s-3.2-8-8-8h-8c-4.8,0-8,3.2-8,8s3.2,8,8,8H380z"/>
			<path d="M412,344c4.8,0,8-3.2,8-8s-3.2-8-8-8h-8c-4.8,0-8,3.2-8,8s3.2,8,8,8H412z"/>
			<path d="M348,344c4.8,0,8-3.2,8-8s-3.2-8-8-8h-8c-4.8,0-8,3.2-8,8s3.2,8,8,8H348z"/>
			<path d="M505.6,82.4l-80-80C424,0.8,422.4,0,420,0H132c-4.8,0-8,3.2-8,8v496c0,4.8,3.2,8,8,8h368c4.8,0,8-3.2,8-8v-96
				c0-4.8-3.2-8-8-8s-8,4-8,8v88H140V16h272v72c0,4.8,3.2,8,8,8h72v256c0,4.8,3.2,8,8,8s8-4,8-8V88C508,85.6,507.2,84,505.6,82.4z
				 M428,80V28l52,52H428z"/>
			<path d="M500,368c-4.8,0-8,3.2-8,8v8c0,4.8,3.2,8,8,8s8-3.2,8-8v-8C508,371.2,504.8,368,500,368z"/>
			<path d="M188,448c-4.8,0-8,3.2-8,8s3.2,8,8,8h152c4.8,0,8-3.2,8-8s-3.2-8-8-8H188z"/>
			<path d="M300,56c0-4.8-3.2-8-8-8H188c-4.8,0-8,3.2-8,8s3.2,8,8,8h104C296.8,64,300,60.8,300,56z"/>
			<path d="M444,136H188c-4.8,0-8,3.2-8,8s3.2,8,8,8h256c4.8,0,8-3.2,8-8S448.8,136,444,136z"/>
			<path d="M444,232H188c-4.8,0-8,3.2-8,8s3.2,8,8,8h256c4.8,0,8-3.2,8-8S448.8,232,444,232z"/>
			<path d="M444,296H188c-4.8,0-8,3.2-8,8s3.2,8,8,8h256c4.8,0,8-3.2,8-8S448.8,296,444,296z"/>
			<path d="M188,344h128c4.8,0,8-3.2,8-8s-3.2-8-8-8H188c-4.8,0-8,3.2-8,8S183.2,344,188,344z"/>
			<path d="M452,400c0-4.8-3.2-8-8-8H188c-4.8,0-8,3.2-8,8s3.2,8,8,8h256C448.8,408,452,404.8,452,400z"/>
			<path d="M92,0c-4.8,0-8,3.2-8,8v496c0,4.8,3.2,8,8,8s8-3.2,8-8V8C100,3.2,96.8,0,92,0z"/>
			<path d="M52,0c-4.8,0-8,3.2-8,8v496c0,4.8,3.2,8,8,8s8-3.2,8-8V8C60,3.2,56.8,0,52,0z"/>
			<path d="M12,0C7.2,0,4,3.2,4,8v496c0,4.8,3.2,8,8,8s8-3.2,8-8V8C20,3.2,16.8,0,12,0z"/>
		</g>
	</g>
</g>
<g>
</g>
<g>
</g>
<g>
</g>
<g>
</g>
<g>
</g>
<g>
</g>
<g>
</g>
<g>
</g>
<g>
</g>
<g>
</g>
<g>
</g>
<g>
</g>
<g>
</g>
<g>
</g>
<g>
</g>
</svg>
